# xmcd
#
# Track frame offsets: 
#        150
#        16396
#        32447
#        52422
#        67145
#        90087
#        107957
#        133218
#        157752
#        174622
#        194388
#
# Disc length: 2874 seconds
#
# Revision: 0
# Processed by: cddbd v1.4PL0 Copyright (c) Steve Scherf et al.
# Submitted via: ExactAudioCopy v0.90b4
#
DISCID=930b380b
DTITLE=Van Morrison - Fast Train Coming
DYEAR=2000
DGENRE=Celtic
TTITLE0=Goodbye Mr Blue
TTITLE1=Midnight Special
TTITLE2=Outskirts Of Town
TTITLE3=Lonesome Road
TTITLE4=When Will I Ever Learn To Live In God ?
TTITLE5=Northern Muse (Solid Ground) > Auld Lang Syne
TTITLE6=I Can't Stop Loving You
TTITLE7=Moondance
TTITLE8=I Got A Woman
TTITLE9=Don't Let The Sun Catch You Cryin'
TTITLE10=Back On Top
EXTD=
EXTT0=
EXTT1=
EXTT2=
EXTT3=
EXTT4=
EXTT5=
EXTT6=
EXTT7=
EXTT8=
EXTT9=
EXTT10=
PLAYORDER=
